<svg xmlns="http://www.w3.org/2000/svg" xmlns:xlink="http://www.w3.org/1999/xlink" viewBox="0 0 1169.57 1079.08"><defs><style>.cls-1{isolation:isolate;}.cls-2{fill:url(#linear-gradient);}.cls-3{fill:url(#linear-gradient-2);}.cls-4{fill:url(#linear-gradient-3);}.cls-5{fill:url(#linear-gradient-4);}.cls-6{fill:url(#linear-gradient-5);}.cls-7{fill:url(#linear-gradient-6);}.cls-8{fill:url(#linear-gradient-7);}.cls-10,.cls-9{opacity:0.7;mix-blend-mode:multiply;}.cls-9{fill:url(#linear-gradient-8);}.cls-10{fill:url(#linear-gradient-9);}.cls-11{fill:#fff;opacity:0.5;mix-blend-mode:soft-light;}</style><linearGradient id="linear-gradient" x1="-22.23" y1="343.4" x2="122.77" y2="343.4" gradientUnits="userSpaceOnUse"><stop offset="0" stop-color="#eeae64"/><stop offset="1" stop-color="#c1465a"/></linearGradient><linearGradient id="linear-gradient-2" x1="918.51" y1="677.81" x2="741.68" y2="677.81" xlink:href="#linear-gradient"/><linearGradient id="linear-gradient-3" x1="557.38" y1="617.84" x2="401.77" y2="656.75" xlink:href="#linear-gradient"/><linearGradient id="linear-gradient-4" x1="1151.09" y1="528.07" x2="885.84" y2="552.83" xlink:href="#linear-gradient"/><linearGradient id="linear-gradient-5" x1="613.1" y1="1012.62" x2="524.69" y2="811.03" xlink:href="#linear-gradient"/><linearGradient id="linear-gradient-6" x1="264.86" y1="962.82" x2="303.76" y2="701.11" xlink:href="#linear-gradient"/><linearGradient id="linear-gradient-7" x1="132.31" y1="376.3" x2="560.24" y2="386.91" gradientUnits="userSpaceOnUse"><stop offset="0" stop-color="#88f1b8"/><stop offset="1" stop-color="#3e6a73"/></linearGradient><linearGradient id="linear-gradient-8" x1="464.41" y1="183.5" x2="557.81" y2="183.5" xlink:href="#linear-gradient-7"/><linearGradient id="linear-gradient-9" x1="329.63" y1="569.54" x2="479.94" y2="569.54" xlink:href="#linear-gradient-7"/></defs><title>资源 1</title><g class="cls-1"><g id="图层_2" data-name="图层 2"><g id="Layer_1" data-name="Layer 1"><path class="cls-2" d="M264.4,80.87c-2,1.51-3.89,3-5.81,4.59-1.16,1-2.32,1.9-3.46,2.85s-2.31,1.92-3.45,2.9-2.26,1.93-3.4,2.91c-2.24,2-4.49,4-6.69,6-1.1,1-2.2,2-3.3,3q-4.89,4.59-9.66,9.33-11.1,11.1-21.26,23.08Q203,140.67,198.83,146t-8.17,10.7c-1.77,2.4-3.5,4.83-5.24,7.3-.85,1.22-1.71,2.44-2.54,3.68s-1.7,2.49-2.53,3.73-1.65,2.51-2.47,3.75-1.44,2.25-2.18,3.37c-.87,1.4-1.77,2.83-2.65,4.26q-1.19,1.89-2.34,3.83c-.78,1.3-1.55,2.59-2.3,3.89s-1.55,2.65-2.31,4-1.44,2.56-2.16,3.85c-1.47,2.63-2.89,5.3-4.3,8s-2.75,5.34-4.09,8.05q-1.91,3.84-3.73,7.72c-.07.14-.13.31-.21.45-1.24,2.69-2.46,5.38-3.65,8.09q-1.86,4.31-3.66,8.64c-.41,1.06-.84,2.12-1.27,3.18-.69,1.73-1.36,3.49-2,5.24q-1.74,4.56-3.38,9.19c-.94,2.67-1.83,5.36-2.73,8.05-.35,1.06-.69,2.14-1,3.22q-.89,2.76-1.71,5.55c-.39,1.28-.78,2.58-1.16,3.89-1.35,4.66-2.59,9.35-3.77,14.06-.37,1.45-.72,2.87-1,4.32s-.72,3-1,4.53q-1.62,7.11-2.94,14.36c-.24,1.31-.47,2.61-.69,3.92s-.47,2.67-.67,4c-.29,1.78-.57,3.55-.84,5.34-.22,1.51-.43,3-.63,4.55-.27,1.81-.49,3.62-.69,5.44-.17,1.2-.31,2.42-.43,3.63-.33,2.87-.61,5.76-.88,8.66-.1,1.14-.2,2.28-.28,3.42-.31,3.75-.55,7.5-.74,11.29-.08,1.63-.16,3.28-.22,4.93q-.12,3.15-.18,6.3-.11,4.29-.11,8.6c0,1.67,0,3.33,0,5,0,3.32.13,6.62.25,9.92.12,3.06.26,6.12.45,9.15.45,7.28,1.1,14.49,2,21.67.13,1.12.27,2.26.41,3.38.12.94.25,1.9.37,2.83.16,1.21.32,2.39.51,3.57.55,3.89,1.16,7.74,1.85,11.6.23,1.28.45,2.56.7,3.83.18,1,.36,2,.55,3a383.47,383.47,0,0,0,15,54.91c.3.88.63,1.73.93,2.59.74,2.06,1.49,4.09,2.29,6.11s1.59,4.12,2.4,6.16c.9,2.22,1.79,4.42,2.73,6.6.47,1.1.94,2.2,1.43,3.28q2.21,5.17,4.62,10.25c.39.84.78,1.67,1.19,2.51.26.55.53,1.08.79,1.63a236.94,236.94,0,0,0-120,53A383.75,383.75,0,0,1,0,446.87C0,276.28,110.81,131.58,264.4,80.87Z"/><path class="cls-3" d="M1033.1,566.81C971.61,698,838.4,788.82,684,788.82a384.81,384.81,0,0,1-129.3-22.24c10.56-1.44,21-3.34,31.22-5.62a383.91,383.91,0,0,0,153.17-72.78,238.46,238.46,0,0,0,294-121.37Z"/><path class="cls-4" d="M886.6,385.18a385.58,385.58,0,0,1-147.55,303q-14.65,11.49-30.37,21.56A383,383,0,0,1,585.88,761c-10.27,2.28-20.66,4.18-31.22,5.62-5.58.8-11.21,1.45-16.85,2-1.72.08-3.47.1-5.2.1A147.09,147.09,0,0,1,385.4,621.43a144.59,144.59,0,0,1,1.41-20.3A385.16,385.16,0,0,0,759.08,551.4,386.18,386.18,0,0,0,886.6,385.18Z"/><path class="cls-5" d="M1169.57,614.46a238.09,238.09,0,0,0-340.83-26.35,383,383,0,0,0,48.34-117.7,237.88,237.88,0,0,1,69.48-10.31C1048.61,460.1,1135.67,524.28,1169.57,614.46Z"/><path class="cls-6" d="M688.05,956.47a237,237,0,0,1-33.95,122.61c-17-157.66-129.05-286.86-277.71-329l-.12-.44.49.16q5.31,1.8,10.72,3.48c1.59.49,3.2,1,4.81,1.45s2.93.86,4.4,1.26c1.16.33,2.32.66,3.51,1,3.09.84,6.21,1.63,9.33,2.41,1.77.43,3.55.83,5.32,1.24,1.32.31,2.67.61,4,.9,1.08.24,2.19.49,3.31.71,1.28.27,2.56.53,3.85.78,1.63.32,3.26.63,4.91.93.35.06.71.15,1.08.21,1.75.32,3.53.63,5.3.91l.45.09c1.73.28,3.48.55,5.23.81s3.73.57,5.63.82c2.1.28,4.22.57,6.34.81,1.45.18,2.89.35,4.34.49,4.4.49,8.82.88,13.27,1.2,1.69.15,3.38.25,5.07.35,2.2.14,4.42.24,6.65.33,1.61.08,3.24.14,4.85.2h.38c1.25,0,2.51.08,3.75.1,1,0,2,0,3,0,1.65,0,3.32,0,5,0,3.08,0,6.18,0,9.24-.1,2-.06,4.07-.12,6.11-.2,1.51-.06,3-.13,4.48-.21,1.21-.06,2.41-.12,3.61-.2,1.37-.06,2.73-.16,4.08-.27,1.53-.1,3-.22,4.54-.34s3-.27,4.53-.41a386,386,0,0,0,48.07-7.6A237.79,237.79,0,0,1,688.05,956.47Z"/><path class="cls-7" d="M385.4,815.09A237.85,237.85,0,0,1,287,1008,385.13,385.13,0,0,0,305.1,890.8a385.57,385.57,0,0,0-16-110,380.19,380.19,0,0,0-16.65-45.29,385.44,385.44,0,0,0-60.78-96.15c1.53,1.75,3.1,3.48,4.67,5.21,1.22,1.35,2.49,2.69,3.73,4q7.53,8,15.51,15.61c1.35,1.26,2.67,2.53,4,3.77s2.75,2.53,4.15,3.77,2.69,2.41,4,3.59,2.77,2.4,4.18,3.58c1.08.94,2.18,1.86,3.28,2.76.67.57,1.34,1.12,2,1.67,1.06.87,2.12,1.73,3.2,2.59,1.63,1.3,3.26,2.58,4.91,3.87,1.26,1,2.53,1.93,3.79,2.89,4.16,3.14,8.4,6.22,12.7,9.19q7.6,5.29,15.51,10.21,3.93,2.46,7.94,4.83c.41.25.82.47,1.21.7,1.38.81,2.77,1.61,4.15,2.4,1.59.92,3.22,1.82,4.83,2.71,1.23.68,2.45,1.35,3.67,2,2,1.1,4.08,2.16,6.14,3.22,4.95,2.55,9.94,5,15,7.3,1.53.71,3.06,1.4,4.6,2.1,1.92.85,3.88,1.69,5.81,2.5l.41.19c3.22,1.36,6.46,2.69,9.74,4l4.75,1.83c.37.15.76.29,1.14.43l4.45,1.61.28.1,4.71,1.66.12.44A237.86,237.86,0,0,1,385.4,815.09Z"/><path class="cls-8" d="M504.79,425.1A147.21,147.21,0,0,0,631.05,287.45,90.9,90.9,0,0,1,554.66,329a86.53,86.53,0,0,1-9.58-.51,385.4,385.4,0,0,0,12.74-98.62,389.21,389.21,0,0,0-3.53-52.44c-1.4-10.17-3.18-20.24-5.34-30.15,0,0,0-.1,0-.14a379.57,379.57,0,0,0-17.2-56.92A383.61,383.61,0,0,0,481.78,0L477,.27c-1.59.1-3.18.2-4.75.32L467.51,1c-1.2.1-2.42.21-3.62.33l-2.08.2q-6.58.68-13.07,1.55l-4.66.67c-1.55.23-3.08.47-4.63.72s-3.08.51-4.63.77q-4.57.8-9.17,1.71c-1.53.31-3,.61-4.56.94s-3.12.67-4.67,1l-4.38,1L407.53,11l-4.18,1.06-4.74,1.28c-1.49.41-3,.84-4.45,1.27s-2.93.85-4.4,1.3-2.93.88-4.4,1.35q-5.08,1.59-10.09,3.32l-3,1c-1.83.65-3.64,1.3-5.46,2-2.32.86-4.64,1.76-7,2.65l-4.64,1.88c-2.8,1.14-5.59,2.32-8.36,3.52q-12.51,5.48-24.52,11.78c-2.46,1.31-4.89,2.61-7.31,4q-2.29,1.24-4.59,2.57c-2.61,1.48-5.2,3-7.77,4.56-1.3.78-2.56,1.55-3.85,2.35s-2.54,1.59-3.81,2.38-2.55,1.61-3.79,2.43-2.51,1.65-3.77,2.48-2.49,1.67-3.71,2.51q-7.42,5.07-14.59,10.49c-1.2.9-2.39,1.82-3.57,2.74-.41.32-.81.63-1.22,1-2,1.51-3.89,3-5.81,4.59-1.16,1-2.32,1.9-3.46,2.85s-2.31,1.92-3.45,2.9-2.26,1.93-3.4,2.91c-2.24,2-4.49,4-6.69,6-1.1,1-2.2,2-3.3,3q-4.89,4.59-9.66,9.33-11.1,11.1-21.26,23.08Q203,140.67,198.83,146t-8.17,10.7c-1.77,2.4-3.5,4.83-5.24,7.3-.85,1.22-1.71,2.44-2.54,3.68s-1.7,2.49-2.53,3.73-1.65,2.51-2.47,3.75-1.44,2.25-2.18,3.37c-.87,1.4-1.77,2.83-2.65,4.26q-1.19,1.89-2.34,3.83c-.78,1.3-1.55,2.59-2.3,3.89s-1.55,2.65-2.31,4-1.44,2.56-2.16,3.85c-1.47,2.63-2.89,5.3-4.3,8s-2.75,5.34-4.09,8.05q-1.91,3.84-3.73,7.72c-.07.14-.13.31-.21.45-1.24,2.69-2.46,5.38-3.65,8.09q-1.86,4.31-3.66,8.64c-.41,1.06-.84,2.12-1.27,3.18-.69,1.73-1.36,3.49-2,5.24q-1.74,4.56-3.38,9.19c-.94,2.67-1.83,5.36-2.73,8.05-.35,1.06-.69,2.14-1,3.22q-.89,2.76-1.71,5.55c-.39,1.28-.78,2.58-1.16,3.89-1.35,4.66-2.59,9.35-3.77,14.06-.37,1.45-.72,2.87-1,4.32s-.72,3-1,4.53q-1.62,7.11-2.94,14.36c-.24,1.31-.47,2.61-.69,3.92s-.47,2.67-.67,4c-.29,1.78-.57,3.55-.84,5.34-.22,1.51-.43,3-.63,4.55-.27,1.81-.49,3.62-.69,5.44-.17,1.2-.31,2.42-.43,3.63-.33,2.87-.61,5.76-.88,8.66-.1,1.14-.2,2.28-.28,3.42-.31,3.75-.55,7.5-.74,11.29-.08,1.63-.16,3.28-.22,4.93q-.12,3.15-.18,6.3-.11,4.29-.11,8.6c0,1.67,0,3.33,0,5,0,3.32.13,6.62.25,9.92.12,3.06.26,6.12.45,9.15.45,7.28,1.1,14.49,2,21.67.13,1.12.27,2.26.41,3.38.12.94.25,1.9.37,2.83.16,1.21.32,2.39.51,3.57.55,3.89,1.16,7.74,1.85,11.6.23,1.28.45,2.56.7,3.83.18,1,.36,2,.55,3a383.47,383.47,0,0,0,15,54.91c.3.88.63,1.73.93,2.59.74,2.06,1.49,4.09,2.29,6.11s1.59,4.12,2.4,6.16c.9,2.22,1.79,4.42,2.73,6.6.47,1.1.94,2.2,1.43,3.28q2.21,5.17,4.62,10.25c.39.84.78,1.67,1.19,2.51.26.55.53,1.08.79,1.63q2.09,4.35,4.3,8.62c1.12,2.16,2.26,4.32,3.41,6.44.18.35.36.67.55,1,.55,1,1.08,2,1.63,3,.89,1.61,1.81,3.22,2.73,4.83l.61,1c.45.79.9,1.57,1.36,2.34,1.7,2.87,3.43,5.75,5.2,8.58.73,1.2,1.49,2.41,2.26,3.59.17.26.35.55.53.81,1.37,2.14,2.75,4.26,4.18,6.36.31.47.61.94.94,1.39.75,1.14,1.53,2.24,2.3,3.36s1.75,2.53,2.65,3.79c.55.75,1.08,1.51,1.63,2.26q1.62,2.26,3.3,4.53,3,4.07,6.18,8.05c.73,1,1.49,1.91,2.26,2.85q1.74,2.2,3.55,4.36c1,1.18,1.95,2.39,2.95,3.55,1.16,1.38,2.35,2.77,3.57,4.14.43.53.9,1.06,1.36,1.57,1.53,1.75,3.1,3.48,4.67,5.21,1.22,1.35,2.49,2.69,3.73,4q7.53,8,15.51,15.61c1.35,1.26,2.67,2.53,4,3.77s2.75,2.53,4.15,3.77,2.69,2.41,4,3.59,2.77,2.4,4.18,3.58c1.08.94,2.18,1.86,3.28,2.76.67.57,1.34,1.12,2,1.67,1.06.87,2.12,1.73,3.2,2.59,1.63,1.3,3.26,2.58,4.91,3.87,1.26,1,2.53,1.93,3.79,2.89,4.16,3.14,8.4,6.22,12.7,9.19q7.6,5.29,15.51,10.21,3.93,2.46,7.94,4.83c.41.25.82.47,1.21.7,1.38.81,2.77,1.61,4.15,2.4,1.59.92,3.22,1.82,4.83,2.71,1.23.68,2.45,1.35,3.67,2,2,1.1,4.08,2.16,6.14,3.22,4.95,2.55,9.94,5,15,7.3,1.53.71,3.06,1.4,4.6,2.1,1.92.85,3.88,1.69,5.81,2.5l.41.19c3.22,1.36,6.46,2.69,9.74,4l4.75,1.83c.37.15.76.29,1.14.43l4.45,1.61.28.1,4.71,1.66.49.16q5.31,1.8,10.72,3.48c1.59.49,3.2,1,4.81,1.45s2.93.86,4.4,1.26c1.16.33,2.32.66,3.51,1,3.09.84,6.21,1.63,9.33,2.41,1.77.43,3.55.83,5.32,1.24,1.32.31,2.67.61,4,.9,1.08.24,2.19.49,3.31.71.44.1.91.18,1.36.27L426,763c1.63.32,3.26.63,4.91.93.35.06.71.15,1.08.21,1.75.32,3.53.63,5.3.91l.45.09c1.73.28,3.48.55,5.23.81s3.73.57,5.63.82c2.1.28,4.22.57,6.34.81,1.45.18,2.89.35,4.34.49,4.4.49,8.82.88,13.27,1.2,1.69.15,3.38.25,5.07.35,2.2.14,4.42.24,6.65.33,1.61.08,3.24.14,4.85.2h.38c1.25,0,2.51.08,3.75.1,1,0,2,0,3,0,1.65,0,3.32,0,5,0,3.08,0,6.18,0,9.24-.1,2-.06,4.07-.12,6.11-.2,1.51-.06,3-.13,4.48-.21,1.21-.06,2.41-.12,3.61-.2,1.37-.06,2.73-.16,4.08-.27,1.53-.1,3-.22,4.54-.34s3-.27,4.53-.41c-1.72.08-3.47.1-5.2.1a147.37,147.37,0,0,1-125.24-69.84s0,0,0-.06a146.35,146.35,0,0,1-21.93-77.33,144.59,144.59,0,0,1,1.41-20.3,147.57,147.57,0,0,1,54.8-95.42l.12-.1a386.56,386.56,0,0,0,38.19-43.33,147.52,147.52,0,0,1-98.31-77.22A146.62,146.62,0,0,0,484,426.57,144.81,144.81,0,0,0,504.79,425.1Z"/><path class="cls-9" d="M545.08,328.52q1.49.15,3,.21a147.76,147.76,0,0,1-83.64-15.63A238.33,238.33,0,0,0,505.72,37.52l.67-.1A383.72,383.72,0,0,1,548.9,147.16s0,.11,0,.14c2.19,9.9,4,20,5.34,30.13a389.58,389.58,0,0,1,3.53,52.45A386.05,386.05,0,0,1,545.08,328.52Z"/><path class="cls-10" d="M464.16,751.78A238.23,238.23,0,0,1,382.79,387.3a147.43,147.43,0,0,0,97.15,75,389.8,389.8,0,0,1-38.2,43.33l-.14.1a147.77,147.77,0,0,0-54.78,95.42,142.14,142.14,0,0,0-1.42,20.3,146.79,146.79,0,0,0,8.77,50.22,148.42,148.42,0,0,0,13.16,27.13s0,0,0,0a145.08,145.08,0,0,0,15.73,21A148,148,0,0,0,464.16,751.78Z"/><path class="cls-11" d="M169.28,455a383.69,383.69,0,0,0,54,196.82c-1.1-1.1-2.12-2.2-3.15-3.29-1.24-1.35-2.51-2.69-3.71-4q-2.38-2.6-4.67-5.19c-.46-.53-1-1.06-1.38-1.6-1.2-1.34-2.4-2.72-3.57-4.13-1-1.17-2-2.37-2.94-3.54-1.2-1.45-2.4-2.9-3.53-4.35-.78-1-1.56-1.91-2.27-2.86-2.12-2.66-4.17-5.34-6.19-8.07-1.13-1.48-2.22-3-3.29-4.49L186.93,608c-.92-1.28-1.81-2.55-2.65-3.82-.78-1.1-1.56-2.2-2.34-3.36-.32-.43-.6-.92-.92-1.38-1.41-2.09-2.83-4.21-4.17-6.37a6.27,6.27,0,0,1-.53-.81c-.78-1.17-1.52-2.37-2.27-3.57-1.76-2.83-3.5-5.73-5.19-8.6l-1.38-2.33a11.55,11.55,0,0,0-.6-1c-.92-1.62-1.84-3.25-2.73-4.84-.56-1-1.09-1.95-1.62-3l-.57-1c-1.13-2.13-2.26-4.28-3.4-6.48-1.48-2.82-2.9-5.69-4.31-8.59-.25-.57-.53-1.1-.78-1.63-.42-.84-.81-1.69-1.2-2.51-1.59-3.39-3.15-6.82-4.6-10.25-.49-1.1-.95-2.2-1.45-3.29-.92-2.19-1.84-4.39-2.72-6.62-.82-2-1.63-4.06-2.41-6.15s-1.55-4-2.26-6.12c-.32-.85-.64-1.7-1-2.58a388.93,388.93,0,0,1-15-54.89c-.18-1-.35-2-.53-3-.25-1.24-.46-2.55-.71-3.82-.67-3.85-1.31-7.71-1.84-11.6-.17-1.17-.35-2.37-.53-3.57-.1-.92-.21-1.88-.35-2.83-.14-1.1-.28-2.26-.39-3.36-.88-7.18-1.52-14.39-2-21.68-.18-3-.32-6.08-.43-9.16-.14-3.29-.21-6.58-.24-9.9,0-1.66-.07-3.33-.07-5,0-2.86.07-5.73.1-8.59.07-2.09.11-4.21.21-6.3,0-1.66.15-3.32.22-4.95.17-3.78.42-7.53.74-11.28.07-1.13.18-2.26.28-3.43.25-2.9.53-5.77.85-8.67.14-1.2.28-2.4.46-3.6.18-1.84.43-3.65.67-5.45l.64-4.56c.28-1.77.57-3.54.85-5.34.18-1.35.42-2.69.67-4s.42-2.62.67-3.92c.89-4.81,1.88-9.62,2.94-14.36.32-1.52.67-3,1.06-4.53s.67-2.87,1-4.32c1.17-4.7,2.44-9.4,3.79-14.07.39-1.31.78-2.62,1.17-3.89.53-1.84,1.09-3.71,1.69-5.55.36-1.06.71-2.16,1-3.22.92-2.69,1.8-5.38,2.76-8,1.09-3.08,2.19-6.15,3.36-9.2.67-1.76,1.34-3.5,2-5.23l1.27-3.18q1.8-4.35,3.64-8.63c1.21-2.73,2.41-5.41,3.65-8.1a3.13,3.13,0,0,0,.21-.46c1.24-2.58,2.47-5.16,3.75-7.71q2-4.08,4.06-8.06c1.42-2.66,2.87-5.34,4.32-8,.71-1.31,1.41-2.58,2.16-3.86s1.52-2.68,2.3-4,1.52-2.58,2.3-3.89,1.55-2.55,2.36-3.82c.85-1.42,1.77-2.87,2.66-4.25.7-1.13,1.41-2.26,2.15-3.39s1.63-2.48,2.48-3.75,1.66-2.48,2.51-3.71,1.7-2.48,2.55-3.68c1.73-2.48,3.46-4.92,5.27-7.32q4-5.41,8.17-10.68t8.52-10.44c6.75-8,13.86-15.66,21.25-23.06,3.19-3.14,6.41-6.29,9.66-9.33,1.1-1,2.23-2,3.32-3,2.2-2,4.42-4,6.69-6,1.13-1,2.26-2,3.39-2.9s2.27-1.95,3.43-2.9,2.3-1.87,3.47-2.86c1.91-1.53,3.85-3.08,5.84-4.57.38-.35.81-.67,1.2-1,1.2-.92,2.37-1.84,3.57-2.72q7.15-5.42,14.61-10.5c1.2-.85,2.44-1.67,3.67-2.52s2.52-1.66,3.79-2.47L295,59.24c1.28-.78,2.55-1.59,3.82-2.37s2.55-1.56,3.86-2.34c2.58-1.59,5.16-3.07,7.74-4.56l4.6-2.58c2.44-1.34,4.85-2.65,7.32-4q12-6.32,24.51-11.78c2.79-1.2,5.59-2.37,8.38-3.53,1.52-.64,3.08-1.24,4.63-1.88l6.94-2.65c1.84-.67,3.64-1.34,5.48-2,1-.35,2-.71,2.93-1,3.36-1.16,6.72-2.26,10.12-3.32,1.45-.5,2.93-.92,4.38-1.35s2.94-.88,4.42-1.3l4.43-1.28,4.77-1.27L407.54,11c1.49-.39,3-.74,4.49-1.1s2.9-.67,4.39-1,3.11-.68,4.67-1,3-.64,4.56-1c3-.6,6.12-1.17,9.16-1.7,1.56-.28,3.08-.53,4.63-.77s3.08-.5,4.64-.71,3.11-.46,4.66-.67c4.32-.6,8.67-1.13,13.05-1.56l2.09-.21L467.52,1c1.6-.14,3.15-.28,4.74-.39S475.41.35,477,.28s3.19-.21,4.78-.28a384.3,384.3,0,0,1,41.8,70.87C325.25,86.68,169.28,252.66,169.28,455Z"/></g></g></g></svg>